<svg xmlns="http://www.w3.org/2000/svg" viewBox="0 0 960 580" width="960" height="580">
  <style>
    text { font-family: -apple-system, BlinkMacSystemFont, 'Segoe UI', 'Helvetica Neue', Arial, 'PingFang SC', 'Microsoft YaHei', 'Microsoft JhengHei', 'SimHei', sans-serif; }
  </style>
  <defs>
    <marker id="arr" markerWidth="8" markerHeight="6" refX="7" refY="3" orient="auto">
      <polygon points="0 0, 8 3, 0 6" fill="#3b82f6"/>
    </marker>
  </defs>
  <rect width="960" height="580" fill="#ffffff"/>
  <text x="40" y="32" font-size="16" font-weight="600" fill="#111827">	Ļ§í–§A</text>

  <!-- 1: Start pill -->
  <rect x="290" y="48" width="380" height="44" rx="22" fill="#111827"/>
  <text x="480" y="74" font-size="14" font-weight="500" fill="#ffffff" text-anchor="middle">(7ĻŻ"Ż†0 CRM / yÓ"</text>

  <!-- 1í2 -->
  <line x1="480" y1="92" x2="480" y2="108" stroke="#3b82f6" stroke-width="1.5" marker-end="url(#arr)"/>

  <!-- 2: U:ÖLb -->
  <rect x="300" y="112" width="360" height="52" rx="4" fill="#f9fafb" stroke="#e5e7eb" stroke-width="1"/>
  <text x="480" y="134" font-size="13" font-weight="500" fill="#111827" text-anchor="middle">U:ÖLŠokôb</text>
  <text x="480" y="151" font-size="12" fill="#6b7280" text-anchor="middle">ůlů	ĻŻŖub	</text>

  <!-- 2í3 -->
  <line x1="480" y1="164" x2="480" y2="180" stroke="#3b82f6" stroke-width="1.5" marker-end="url(#arr)"/>

  <!-- 3: (7kô -->
  <rect x="330" y="184" width="300" height="48" rx="4" fill="#f9fafb" stroke="#e5e7eb" stroke-width="1"/>
  <text x="480" y="208" font-size="13" font-weight="500" fill="#111827" text-anchor="middle">(7kôhUvĻŻ–§</text>

  <!-- 3í4 -->
  <line x1="480" y1="232" x2="480" y2="248" stroke="#3b82f6" stroke-width="1.5" marker-end="url(#arr)"/>

  <!-- 4: (	Ļ•„ -->
  <rect x="310" y="252" width="340" height="48" rx="4" fill="#f9fafb" stroke="#e5e7eb" stroke-width="1"/>
  <text x="480" y="276" font-size="13" font-weight="500" fill="#111827" text-anchor="middle">SCRM (	ĻŻŖ•„</text>

  <!-- 4í5 -->
  <line x1="480" y1="300" x2="480" y2="356" stroke="#3b82f6" stroke-width="1.5" marker-end="url(#arr)"/>

  <!-- 5: Diamond •„/&ü -->
  <polygon points="480,360 590,408 480,456 370,408" fill="#f9fafb" stroke="#e5e7eb" stroke-width="1.5"/>
  <text x="480" y="403" font-size="13" font-weight="500" fill="#111827" text-anchor="middle">•„ÕĒ</text>
  <text x="480" y="420" font-size="13" font-weight="500" fill="#111827" text-anchor="middle">/&ü</text>

  <!-- 5í6 / (left) -->
  <path d="M370,408 L240,408 L240,472" stroke="#3b82f6" stroke-width="1.5" fill="none" marker-end="url(#arr)"/>
  <rect x="293" y="398" width="26" height="17" rx="2" fill="#ffffff" opacity="0.92"/>
  <text x="306" y="410" font-size="12" fill="#374151" text-anchor="middle">/</text>

  <!-- 5í7 & (right) -->
  <path d="M590,408 L720,408 L720,472" stroke="#3b82f6" stroke-width="1.5" fill="none" marker-end="url(#arr)"/>
  <rect x="643" y="398" width="26" height="17" rx="2" fill="#ffffff" opacity="0.92"/>
  <text x="656" y="410" font-size="12" fill="#374151" text-anchor="middle">&</text>

  <!-- 6: –§ü -->
  <rect x="120" y="476" width="240" height="56" rx="4" fill="#f9fafb" stroke="#e5e7eb" stroke-width="1"/>
  <text x="240" y="498" font-size="13" font-weight="500" fill="#111827" text-anchor="middle">U:–§ü–:</text>
  <text x="240" y="515" font-size="12" fill="#6b7280" text-anchor="middle">bsŪŰįsT∂</text>

  <!-- 7: –§1% -->
  <rect x="600" y="476" width="240" height="56" rx="4" fill="#f9fafb" stroke="#e5e7eb" stroke-width="1"/>
  <text x="720" y="498" font-size="13" font-weight="500" fill="#111827" text-anchor="middle">U:1%–:›YhU</text>
  <text x="720" y="515" font-size="12" fill="#6b7280" text-anchor="middle">–õÕ’e„</text>
</svg>
